<svg width="32" height="9" viewBox="0 0 32 9" fill="none" xmlns="http://www.w3.org/2000/svg">
<path d="M10.3789 2.59766H10.3682V2.59922C10.3713 2.59922 10.3742 2.59922 10.3789 2.59766Z" fill="#168F8C"/>
<path d="M10.6211 2.32422V8.81493H12.1484V3.95003C12.1484 3.58682 11.9543 2.48938 10.6211 2.32422Z" fill="#00A39D"/>
<path d="M2.50008 7.68623C2.69412 7.68623 2.85317 7.66197 2.97591 7.61213C3.09866 7.56229 3.19555 7.49863 3.26528 7.42139C3.33501 7.3426 3.38202 7.25493 3.40918 7.15656C3.43503 7.05819 3.44861 6.95826 3.44861 6.85676C3.44861 6.74013 3.43346 6.63732 3.40317 6.54339C3.37287 6.45102 3.31986 6.37222 3.247 6.30882C3.17283 6.24516 3.07568 6.19532 2.95319 6.16036C2.83201 6.12565 2.67741 6.10895 2.49251 6.10895H1.4651V7.68623H2.50008ZM1.4651 3.56287V5.12658H2.2303C2.39248 5.12658 2.53925 5.11458 2.66957 5.09188C2.79989 5.06918 2.91036 5.02821 3.00281 4.97081C3.0937 4.91341 3.16342 4.83304 3.212 4.73154C3.26058 4.63005 3.2833 4.50298 3.2833 4.34851C3.2833 4.19717 3.26502 4.07298 3.22715 3.97304C3.18928 3.87311 3.13182 3.79301 3.05295 3.73247C2.97408 3.67194 2.87563 3.6281 2.75445 3.60227C2.63484 3.57644 2.49094 3.56287 2.32563 3.56287H1.4638H1.4651ZM2.32719 2.46387C2.76516 2.46387 3.13783 2.50483 3.44522 2.58494C3.75286 2.6666 4.00436 2.78011 4.19814 2.92857C4.39218 3.07704 4.53451 3.25551 4.62226 3.46737C4.71001 3.67924 4.75571 3.91538 4.75571 4.17578C4.75571 4.31798 4.73613 4.45418 4.69513 4.58595C4.65412 4.71772 4.59066 4.84035 4.50422 4.95542C4.41777 5.07048 4.30574 5.17485 4.16941 5.27035C4.03309 5.36559 3.86934 5.44908 3.67843 5.51849C4.09655 5.61999 4.40576 5.78332 4.60555 6.00902C4.80533 6.23472 4.90562 6.52826 4.90562 6.88702C4.90562 7.15656 4.85417 7.40783 4.74945 7.63926C4.64498 7.87096 4.49194 8.0737 4.29033 8.24487C4.08871 8.41734 3.84035 8.55223 3.54498 8.64903C3.24961 8.74584 2.91167 8.79437 2.53142 8.79437H0V2.46387H2.33163H2.32719Z" fill="#00A39D"/>
<path d="M9.32321 3.74911C9.27933 3.81877 9.23389 3.87017 9.18688 3.90514C9.13831 3.93984 9.07772 3.95654 9.00198 3.95654C8.93538 3.95654 8.86409 3.9354 8.78678 3.89287C8.70948 3.8506 8.62304 3.80364 8.52615 3.75198C8.42926 3.70058 8.31853 3.65204 8.19291 3.61108C8.0686 3.56881 7.92626 3.54741 7.76722 3.54741C7.49143 3.54741 7.28695 3.60638 7.15219 3.72302C7.01743 3.83965 6.94927 3.99855 6.94927 4.19842C6.94927 4.32548 6.99027 4.43142 7.07044 4.51622C7.15219 4.60102 7.25822 4.67225 7.3901 4.73409C7.52199 4.79462 7.67346 4.85072 7.84322 4.90212C8.01297 4.95353 8.1856 5.00962 8.36292 5.07172C8.54025 5.13382 8.71288 5.20636 8.88263 5.29116C9.05238 5.37596 9.20386 5.48189 9.33574 5.61209C9.46763 5.74229 9.57366 5.9012 9.6554 6.08749C9.73714 6.27379 9.77658 6.49923 9.77658 6.7625C9.77658 7.05473 9.7267 7.3287 9.62511 7.58284C9.52352 7.83724 9.37674 8.05955 9.1827 8.25028C8.99023 8.43945 8.75231 8.58948 8.46921 8.69829C8.18612 8.80709 7.86463 8.86188 7.50554 8.86188C7.30862 8.86188 7.10701 8.84231 6.90252 8.80135C6.69803 8.76039 6.49955 8.70298 6.30864 8.63018C6.11774 8.55608 5.93753 8.46815 5.76935 8.36691C5.60116 8.26541 5.45413 8.15191 5.33008 8.02771L5.76491 7.34201C5.79964 7.29217 5.84508 7.25121 5.90123 7.21781C5.95738 7.18441 6.01954 7.16797 6.08613 7.16797C6.17258 7.16797 6.26033 7.19511 6.34964 7.25121C6.43739 7.30574 6.53742 7.36784 6.64972 7.43438C6.76175 7.50091 6.8892 7.56144 7.03467 7.61754C7.18013 7.67208 7.35119 7.70078 7.54837 7.70078C7.81501 7.70078 8.02263 7.64181 8.17097 7.52518C8.31957 7.40698 8.39217 7.22251 8.39217 6.96654C8.39217 6.81808 8.35117 6.69858 8.27099 6.60621C8.18925 6.51384 8.08322 6.43661 7.95134 6.37607C7.81945 6.31554 7.66954 6.26101 7.50136 6.21561C7.33317 6.16864 7.16054 6.11724 6.98322 6.06114C6.80589 6.00504 6.63326 5.93538 6.46508 5.85214C6.29689 5.76891 6.14698 5.66141 6.0151 5.52677C5.88321 5.39214 5.77562 5.2241 5.69544 5.02267C5.6137 4.82124 5.57426 4.5731 5.57426 4.278C5.57426 4.0403 5.62284 3.80886 5.71816 3.58316C5.81348 3.35772 5.95451 3.15629 6.14098 2.97912C6.32745 2.80196 6.55465 2.66132 6.82417 2.55539C7.09395 2.44945 7.4029 2.39648 7.75129 2.39648C7.94533 2.39648 8.13467 2.41162 8.31957 2.44188C8.50447 2.47215 8.67866 2.51755 8.84372 2.57652C9.00877 2.63549 9.16338 2.70672 9.30728 2.78996C9.45117 2.87319 9.57836 2.96556 9.69222 3.06993L9.32712 3.7525L9.32321 3.74911Z" fill="#00A39D"/>
<path d="M12.1458 0.157336C12.1427 0.104369 12.1367 0.0514017 12.1291 0C12.4715 0.352767 12.9593 0.558634 13.4882 0.525236C13.7412 0.508537 13.9776 0.438872 14.1881 0.328501C14.0243 0.613168 13.9397 0.94767 13.9624 1.30044C13.9896 1.73644 14.1776 2.12391 14.4623 2.41145C14.3168 2.38274 14.1638 2.37048 14.0079 2.38118C13.3897 2.42058 12.8671 2.77778 12.5913 3.28345C12.4822 2.53564 11.9019 1.95431 11.1748 1.82567C11.7885 1.52587 12.1931 0.878004 12.1474 0.156031L12.1458 0.157336Z" fill="#F9AD3C"/>
<path d="M14.7801 6.39741C14.8511 6.39741 14.913 6.38984 14.9642 6.37314C15.0151 6.35645 15.0585 6.33531 15.0909 6.30661C15.1248 6.27791 15.1496 6.24294 15.1651 6.20224C15.1805 6.16128 15.1883 6.11744 15.1883 6.06891C15.1883 5.97498 15.1543 5.90088 15.0862 5.84791C15.018 5.79338 14.9162 5.76624 14.7801 5.76624H14.3797V6.39741H14.7801ZM14.3797 4.97304V5.59064H14.7106C14.7817 5.59064 14.842 5.58307 14.8948 5.56794C14.9472 5.55281 14.9906 5.53167 15.0245 5.50427C15.0585 5.47714 15.0849 5.4453 15.1003 5.40747C15.1173 5.36807 15.1251 5.32737 15.1251 5.2804C15.1251 5.1729 15.0927 5.09567 15.0261 5.04583C14.9611 4.996 14.8592 4.97173 14.7216 4.97173H14.38V4.97304H14.3797ZM14.7213 4.77917C14.8357 4.77917 14.9331 4.78987 15.0151 4.81257C15.0971 4.8337 15.1651 4.86553 15.2178 4.9065C15.2719 4.94746 15.3105 4.9973 15.3353 5.05627C15.3601 5.11367 15.3724 5.18047 15.3724 5.253C15.3724 5.29841 15.3646 5.34067 15.3507 5.38164C15.3369 5.4226 15.3152 5.46044 15.2873 5.49514C15.2593 5.52984 15.2222 5.56324 15.1792 5.59038C15.1358 5.61751 15.0849 5.64021 15.0261 5.65848C15.1622 5.68431 15.2643 5.73101 15.3322 5.80068C15.4017 5.87035 15.4359 5.96115 15.4359 6.07308C15.4359 6.15032 15.422 6.21998 15.3925 6.28339C15.3646 6.34705 15.3215 6.40132 15.2659 6.44699C15.2102 6.49239 15.1421 6.52709 15.0616 6.55292C14.9812 6.57719 14.8885 6.58919 14.7848 6.58919H14.1309V4.77734H14.7216V4.77917H14.7213Z" fill="#00A39D"/>
<path d="M16.7581 5.91875L16.4674 5.18164C16.458 5.16051 16.4504 5.13467 16.4395 5.10597C16.43 5.07727 16.4209 5.04544 16.4115 5.01204C16.393 5.08014 16.3744 5.13781 16.3559 5.18321L16.0652 5.91875H16.7565H16.7581ZM17.2791 6.59088H17.0858C17.0626 6.59088 17.0456 6.58488 17.0318 6.57418C17.0179 6.56349 17.007 6.54992 17.0009 6.53191L16.8278 6.09435H15.9976L15.8244 6.53191C15.8197 6.54705 15.809 6.56061 15.7952 6.57288C15.7813 6.58488 15.7628 6.59114 15.7411 6.59114H15.5479L16.2885 4.7793H16.5421L17.2827 6.59114H17.2791V6.59088Z" fill="#00A39D"/>
<path d="M19.0207 4.78015V6.59199H18.8954C18.8753 6.59199 18.8583 6.58886 18.8444 6.58129C18.8322 6.57529 18.8181 6.56303 18.8058 6.54659L17.7358 5.18118C17.7374 5.20232 17.739 5.22345 17.7405 5.24328C17.7421 5.26285 17.7421 5.28268 17.7421 5.30069V6.59199H17.5225V4.78015H17.6523C17.663 4.78015 17.6724 4.78171 17.6802 4.78328C17.688 4.78484 17.694 4.78641 17.7003 4.78928C17.7066 4.79241 17.7126 4.79528 17.7189 4.80128C17.7251 4.80572 17.7311 4.81328 17.739 4.82085L18.8089 6.18469C18.8074 6.16199 18.8058 6.14242 18.8042 6.12103C18.8027 6.09989 18.8027 6.08006 18.8027 6.06206V4.77832H19.0223L19.0207 4.78015Z" fill="#00A39D"/>
<path d="M19.9155 5.40219H20.0098C20.0422 5.40219 20.0685 5.39776 20.0886 5.39019C20.1087 5.38106 20.1273 5.36749 20.1427 5.34792L20.758 4.66535C20.775 4.64265 20.7935 4.62751 20.8121 4.61995C20.8306 4.61081 20.8538 4.60794 20.8815 4.60794H21.0933L20.3882 5.38758C20.3712 5.40715 20.3542 5.42541 20.3373 5.43742C20.3219 5.44942 20.3049 5.46012 20.2863 5.46925C20.3096 5.47682 20.3313 5.48751 20.3498 5.50395C20.3683 5.51752 20.3869 5.53735 20.4054 5.56135L21.1414 6.41953H20.9249C20.9079 6.41953 20.8941 6.41796 20.8815 6.4164C20.8708 6.41327 20.8598 6.4104 20.8523 6.4057C20.8429 6.40127 20.8353 6.395 20.829 6.389C20.8228 6.383 20.8168 6.37543 20.8105 6.3663L20.1719 5.6472C20.155 5.62606 20.1364 5.61093 20.1163 5.60336C20.0962 5.59423 20.067 5.5898 20.0267 5.5898H19.9139V6.41927H19.665V4.60742H19.9139V5.40219H19.9155Z" fill="#00A39D"/>
<path d="M22.8121 5.06315C22.8043 5.07515 22.7951 5.08585 22.7857 5.09185C22.7763 5.09785 22.7656 5.10099 22.7533 5.10099C22.7395 5.10099 22.721 5.09342 22.7024 5.07985C22.6823 5.06628 22.6575 5.04958 22.6283 5.03288C22.599 5.01462 22.5632 4.99949 22.5214 4.98435C22.4797 4.96922 22.4303 4.96322 22.37 4.96322C22.3143 4.96322 22.2647 4.97078 22.2216 4.98592C22.1798 4.99949 22.1443 5.02062 22.1148 5.04489C22.0869 5.07072 22.0655 5.09942 22.0498 5.13412C22.0359 5.16752 22.0281 5.20379 22.0281 5.24475C22.0281 5.29459 22.0404 5.33712 22.0652 5.37182C22.0916 5.40522 22.124 5.43236 22.1657 5.45662C22.2075 5.48089 22.2553 5.50046 22.3081 5.51872C22.3621 5.53542 22.4162 5.55343 22.4705 5.57169C22.5261 5.58995 22.5802 5.61109 22.633 5.63535C22.687 5.65806 22.7335 5.68676 22.7753 5.72302C22.8171 5.75773 22.851 5.80182 22.8758 5.85322C22.9022 5.90463 22.9145 5.96829 22.9145 6.04239C22.9145 6.12119 22.9006 6.19686 22.8727 6.26653C22.8448 6.33619 22.8045 6.39516 22.7505 6.44656C22.698 6.49797 22.633 6.53893 22.5557 6.56763C22.4783 6.59633 22.3916 6.61147 22.2927 6.61147C22.172 6.61147 22.0623 6.59033 21.9649 6.5478C21.8675 6.50553 21.7824 6.4463 21.7129 6.37533L21.7855 6.2587C21.7918 6.24957 21.8009 6.242 21.8103 6.236C21.821 6.23 21.832 6.2253 21.8443 6.2253C21.855 6.2253 21.8675 6.22974 21.8813 6.23887C21.8952 6.248 21.9122 6.25844 21.9307 6.27227C21.9492 6.28583 21.9693 6.30097 21.9926 6.3161C22.0158 6.3328 22.042 6.34637 22.0715 6.35994C22.1007 6.37351 22.1349 6.3842 22.1736 6.39464C22.2122 6.40377 22.254 6.40664 22.3018 6.40664C22.3606 6.40664 22.4146 6.39908 22.4611 6.38238C22.5076 6.36568 22.5462 6.34454 22.5786 6.31584C22.611 6.28714 22.6358 6.25087 22.6528 6.21147C22.6698 6.17051 22.6792 6.12511 22.6792 6.07684C22.6792 6.0223 22.6669 5.9769 22.6405 5.9422C22.6157 5.9075 22.5818 5.87723 22.5415 5.85453C22.4998 5.83026 22.4535 5.8107 22.3992 5.79556C22.3452 5.77886 22.2911 5.76216 22.2368 5.74572C22.1811 5.72746 22.1271 5.70789 22.0743 5.68519C22.0203 5.66249 21.9738 5.63222 21.932 5.59752C21.8902 5.56125 21.8578 5.51585 21.8315 5.46289C21.8066 5.40835 21.7944 5.34025 21.7944 5.26015C21.7944 5.19648 21.8066 5.13438 21.8315 5.07385C21.8578 5.01332 21.8949 4.96035 21.9427 4.91495C21.9921 4.86798 22.0508 4.83171 22.1221 4.80301C22.1932 4.77588 22.2752 4.76074 22.3679 4.76074C22.4716 4.76074 22.5658 4.77744 22.6494 4.80927C22.7345 4.84111 22.8103 4.88807 22.8735 4.94861L22.8132 5.06524L22.8121 5.06315Z" fill="#00A39D"/>
<path d="M23.9253 5.87015V6.59212H23.6748V5.87015L22.9961 4.78027H23.2157C23.2374 4.78027 23.2559 4.78628 23.2682 4.79697C23.2805 4.80767 23.293 4.82124 23.3022 4.83794L23.7258 5.54191C23.7412 5.57217 23.755 5.59931 23.7691 5.62514C23.7814 5.65097 23.7939 5.67654 23.8031 5.70237C23.8125 5.67654 23.8232 5.65097 23.8355 5.62514C23.8477 5.59931 23.8603 5.57061 23.8757 5.54191L24.2977 4.83794C24.3055 4.82437 24.3163 4.8108 24.3301 4.79854C24.3439 4.78654 24.3609 4.78027 24.3826 4.78027H24.6038L23.9253 5.87015Z" fill="#00A39D"/>
<path d="M25.6438 5.91875L25.3531 5.18164C25.3437 5.16051 25.3362 5.13467 25.3252 5.10597C25.3158 5.07727 25.3067 5.04544 25.2972 5.01204C25.2787 5.08014 25.2602 5.13781 25.2416 5.18321L24.951 5.91875H25.6422H25.6438ZM26.1648 6.59088H25.9716C25.9483 6.59088 25.9313 6.58488 25.9175 6.57418C25.9037 6.56349 25.8927 6.54992 25.8867 6.53191L25.7135 6.09435H24.8833L24.7102 6.53191C24.7055 6.54705 24.6948 6.56061 24.6809 6.57288C24.6671 6.58488 24.6485 6.59114 24.6269 6.59114H24.4336L25.1742 4.7793H25.4278L26.1685 6.59114H26.1648V6.59088Z" fill="#00A39D"/>
<path d="M26.9216 5.65704C26.9942 5.65704 27.0577 5.64791 27.1133 5.63121C27.169 5.61294 27.2154 5.58894 27.2525 5.55867C27.2912 5.52684 27.3191 5.48901 27.3377 5.44517C27.3562 5.40134 27.3656 5.3528 27.3656 5.29984C27.3656 5.19234 27.3301 5.11067 27.2575 5.05614C27.1849 5.0016 27.0765 4.97447 26.9313 4.97447H26.6576V5.65861H26.9206L26.9216 5.65704ZM27.7767 6.59088H27.5539C27.5074 6.59088 27.475 6.57418 27.4534 6.53948L26.9726 5.89161C26.9587 5.87204 26.9418 5.85691 26.9245 5.84934C26.9075 5.84021 26.8827 5.83577 26.8472 5.83577H26.6571V6.59114H26.4082V4.7793H26.9308C27.0483 4.7793 27.1489 4.7913 27.2337 4.814C27.3186 4.8367 27.3899 4.8701 27.444 4.91393C27.4996 4.95777 27.5414 5.01074 27.5678 5.07283C27.5941 5.13493 27.608 5.20304 27.608 5.28027C27.608 5.34393 27.5973 5.40447 27.5772 5.46031C27.557 5.5164 27.5262 5.56624 27.4876 5.61007C27.4489 5.65391 27.4009 5.69174 27.3437 5.72201C27.288 5.75384 27.2246 5.77654 27.152 5.79324C27.1844 5.81151 27.2107 5.83708 27.234 5.87047L27.7735 6.58958L27.7767 6.59088Z" fill="#00A39D"/>
<path d="M28.2806 6.59212H28.0283V4.78027H28.2806V6.59212Z" fill="#00A39D"/>
<path d="M29.7356 5.91875L29.4449 5.18164C29.4355 5.16051 29.428 5.13467 29.417 5.10597C29.4076 5.07727 29.3984 5.04544 29.389 5.01204C29.3705 5.08014 29.352 5.13781 29.3334 5.18321L29.0427 5.91875H29.734H29.7356ZM30.2566 6.59088H30.0634C30.0417 6.59088 30.0231 6.58488 30.0093 6.57418C29.9955 6.56349 29.9845 6.54992 29.9785 6.53191L29.8053 6.09435H28.9751L28.802 6.53191C28.7973 6.54705 28.7865 6.56061 28.7727 6.57288C28.7589 6.58488 28.7403 6.59114 28.7186 6.59114H28.5254L29.266 4.7793H29.5196L30.2603 6.59114H30.2566V6.59088Z" fill="#00A39D"/>
<path d="M31.9998 4.78027V6.59212H31.7491V5.76708H30.7505V6.59212H30.5V4.78027H30.7505V5.58861H31.7491V4.78027H31.9998Z" fill="#00A39D"/>
<path d="M14.3744 8.98105H14.1289V7.16895H14.3744V8.98105Z" fill="#0CA49D"/>
<path d="M16.3528 7.16882V8.98066H16.2274C16.2073 8.98066 16.1903 8.97753 16.1765 8.96997C16.1642 8.96396 16.1501 8.9517 16.1378 8.93526L15.0679 7.56986C15.0694 7.59099 15.071 7.61213 15.0726 7.63196C15.0741 7.65153 15.0741 7.67136 15.0741 7.68936V8.98066H14.8545V7.16882H14.9843C14.995 7.16882 15.0044 7.17038 15.0122 7.17195C15.0201 7.17352 15.0261 7.17508 15.0323 7.17795C15.0386 7.18108 15.0446 7.18395 15.0509 7.18995C15.0572 7.19439 15.0632 7.20196 15.071 7.20952L16.141 8.57337C16.1394 8.55223 16.1378 8.5311 16.1363 8.5097C16.1347 8.48857 16.1347 8.46873 16.1347 8.45073V7.16699H16.3543L16.3528 7.16882Z" fill="#00A39D"/>
<path d="M18.4303 8.07532C18.4303 8.21152 18.4086 8.33416 18.3637 8.44609C18.3203 8.55803 18.2569 8.65196 18.1783 8.73206C18.0978 8.81086 18.002 8.87296 17.8892 8.9168C17.7779 8.95907 17.6525 8.98177 17.5165 8.98177H16.8252V7.16992H17.5165C17.6525 7.16992 17.7763 7.19106 17.8892 7.23489C18.002 7.27716 18.0978 7.33926 18.1783 7.41962C18.2587 7.49842 18.3206 7.59366 18.3637 7.7056C18.407 7.81753 18.4303 7.94016 18.4303 8.07637V8.07532ZM18.1736 8.07532C18.1736 7.96339 18.1582 7.86502 18.1271 7.77709C18.0963 7.68942 18.0529 7.61506 17.9957 7.55452C17.9385 7.49399 17.8704 7.44702 17.7886 7.41519C17.7082 7.38336 17.617 7.36666 17.5181 7.36666H17.0775V8.7819H17.5181C17.6186 8.7819 17.7082 8.7652 17.7886 8.73337C17.8691 8.70154 17.9385 8.65457 17.9957 8.5956C18.0529 8.53507 18.0963 8.46097 18.1271 8.37304C18.1582 8.28589 18.1736 8.18595 18.1736 8.07532Z" fill="#00A39D"/>
<path d="M20.5008 8.07569C20.5008 8.21189 20.4792 8.33609 20.4342 8.44959C20.3909 8.56309 20.329 8.65989 20.2488 8.74182C20.1684 8.82349 20.0725 8.88716 19.9597 8.93256C19.8485 8.97796 19.7231 8.99909 19.587 8.99909C19.451 8.99909 19.3272 8.97639 19.2144 8.93256C19.1031 8.88716 19.0073 8.82349 18.9268 8.74182C18.8464 8.66015 18.7845 8.56309 18.7414 8.44959C18.698 8.33609 18.6748 8.21033 18.6748 8.07569C18.6748 7.93949 18.6965 7.81529 18.7414 7.70335C18.7848 7.58985 18.8466 7.49148 18.9268 7.40981C19.0073 7.32658 19.1031 7.26291 19.2144 7.21751C19.3256 7.17211 19.451 7.14941 19.587 7.14941C19.7231 7.14941 19.8469 7.17211 19.9597 7.21751C20.0725 7.26291 20.1684 7.32658 20.2488 7.40981C20.3293 7.49148 20.3911 7.58985 20.4342 7.70335C20.4776 7.81685 20.5008 7.94105 20.5008 8.07569ZM20.2441 8.07569C20.2441 7.96375 20.2287 7.86539 20.1976 7.77589C20.1668 7.68822 20.1235 7.61229 20.0663 7.55176C20.0091 7.48966 19.9409 7.44269 19.8592 7.40955C19.7787 7.37615 19.6876 7.35972 19.5886 7.35972C19.4896 7.35972 19.4 7.37642 19.318 7.40955C19.2376 7.44295 19.1681 7.48966 19.1109 7.55176C19.0537 7.61229 19.0104 7.68639 18.9796 7.77589C18.9488 7.86356 18.9331 7.96349 18.9331 8.07569C18.9331 8.18606 18.9485 8.28599 18.9796 8.37549C19.0104 8.46316 19.0537 8.53752 19.1109 8.59962C19.1681 8.66016 19.2376 8.70712 19.318 8.74052C19.3985 8.77235 19.4896 8.78905 19.5886 8.78905C19.6891 8.78905 19.7787 8.77235 19.8592 8.74052C19.9396 8.70712 20.0091 8.66042 20.0663 8.59962C20.1235 8.53752 20.1668 8.46342 20.1976 8.37549C20.2287 8.28782 20.2441 8.18789 20.2441 8.07569Z" fill="#00A39D"/>
<path d="M22.3596 7.16882V8.98066H22.2342C22.2141 8.98066 22.1972 8.97753 22.1833 8.96997C22.171 8.96396 22.1569 8.9517 22.1447 8.93526L21.0747 7.56986C21.0763 7.59099 21.0778 7.61213 21.0794 7.63196C21.081 7.65153 21.081 7.67136 21.081 7.68936V8.98066H20.8613V7.16882H20.9911C21.0018 7.16882 21.0112 7.17038 21.0191 7.17195C21.0269 7.17352 21.0329 7.17508 21.0392 7.17795C21.0454 7.18108 21.0515 7.18395 21.0577 7.18995C21.064 7.19439 21.07 7.20196 21.0778 7.20952L22.1478 8.57337C22.1462 8.55223 22.1447 8.5311 22.1431 8.5097C22.1415 8.48857 22.1415 8.46873 22.1415 8.45073V7.16699H22.3612L22.3596 7.16882Z" fill="#00A39D"/>
<path d="M23.9743 8.78118L23.9727 8.98105H22.833V7.16895H23.9727V7.36881H23.0835V7.96972H23.804V8.16202H23.0835V8.78118H23.9743Z" fill="#00A39D"/>
<path d="M25.2691 7.45182C25.2613 7.46382 25.2522 7.47452 25.2428 7.48052C25.2334 7.48653 25.2227 7.48966 25.2104 7.48966C25.1965 7.48966 25.178 7.48209 25.1595 7.46852C25.1393 7.45495 25.1145 7.43826 25.0853 7.42156C25.056 7.40329 25.0203 7.38816 24.9785 7.37302C24.9367 7.35946 24.8873 7.35189 24.827 7.35189C24.7714 7.35189 24.7218 7.35946 24.6787 7.37459C24.6369 7.38816 24.6014 7.40929 24.5718 7.43356C24.5439 7.45939 24.5225 7.48809 24.5068 7.52279C24.493 7.55619 24.4851 7.59403 24.4851 7.63342C24.4851 7.68326 24.4974 7.72579 24.5222 7.76049C24.5486 7.79389 24.581 7.82103 24.6228 7.84529C24.6646 7.86956 24.7124 7.88913 24.7651 7.90739C24.8192 7.92409 24.8732 7.9421 24.9275 7.96036C24.9832 7.97862 25.0372 7.99976 25.09 8.02403C25.144 8.04673 25.1905 8.07543 25.2323 8.1117C25.2741 8.1464 25.3081 8.19049 25.3329 8.2419C25.3592 8.2933 25.3715 8.35696 25.3715 8.43107C25.3715 8.50986 25.3577 8.58553 25.3297 8.6552C25.3018 8.72486 25.2616 8.78383 25.2075 8.83523C25.155 8.88664 25.09 8.9276 25.0127 8.9563C24.9354 8.985 24.8487 9.00014 24.7497 9.00014C24.629 9.00014 24.5194 8.979 24.4219 8.93647C24.3245 8.8942 24.2394 8.83497 24.1699 8.764L24.2425 8.64737C24.2488 8.63824 24.2579 8.63067 24.2673 8.62467C24.278 8.61867 24.289 8.61397 24.3013 8.61397C24.312 8.61397 24.3245 8.61841 24.3384 8.62754C24.3538 8.63667 24.3692 8.64711 24.3877 8.66094C24.4063 8.67451 24.4264 8.68964 24.4496 8.70477C24.4729 8.72147 24.499 8.73504 24.5285 8.74861C24.5577 8.76218 24.592 8.77287 24.6306 8.78331C24.6693 8.79244 24.711 8.79531 24.7588 8.79531C24.8176 8.79531 24.8717 8.78775 24.9181 8.77105C24.9646 8.75435 25.0033 8.73321 25.0357 8.70451C25.068 8.67424 25.0929 8.63954 25.1098 8.60014C25.1268 8.55918 25.1362 8.51378 25.1362 8.46551C25.1362 8.41097 25.1239 8.36557 25.0976 8.33087C25.0728 8.29617 25.0388 8.2659 24.9986 8.2432C24.9568 8.21893 24.9106 8.19937 24.8562 8.18423C24.8022 8.16753 24.7481 8.15083 24.6938 8.1344C24.6382 8.11613 24.5841 8.09656 24.5314 8.07386C24.4773 8.05116 24.4308 8.0209 24.389 7.98619C24.3472 7.94992 24.3149 7.90452 24.2885 7.85156C24.2637 7.79702 24.2514 7.72892 24.2514 7.64882C24.2514 7.58515 24.2637 7.52306 24.2885 7.46252C24.3149 7.40199 24.352 7.34902 24.3997 7.30362C24.4491 7.25665 24.5079 7.22038 24.5792 7.19168C24.6502 7.16455 24.7322 7.14941 24.8249 7.14941C24.9286 7.14941 25.0229 7.16611 25.1064 7.19795C25.1916 7.22978 25.2673 7.27674 25.3305 7.33728L25.2702 7.45391L25.2691 7.45182Z" fill="#00A39D"/>
<path d="M25.976 8.98105H25.7256V7.16895H25.976V8.98105Z" fill="#00A39D"/>
<path d="M27.4329 8.30742L27.1422 7.57031C27.1328 7.54761 27.1252 7.52335 27.1143 7.49464C27.1049 7.46594 27.0957 7.43411 27.0863 7.40071C27.0678 7.46881 27.0492 7.52622 27.0307 7.57188L26.74 8.30742H27.4313H27.4329ZM27.9539 8.97956H27.7606C27.7374 8.97956 27.7204 8.97355 27.7066 8.96286C27.6927 8.95216 27.6818 8.93859 27.6757 8.92059L27.5026 8.48302H26.6724L26.4992 8.92059C26.4945 8.93572 26.4838 8.94929 26.47 8.96155C26.4561 8.97355 26.4376 8.97981 26.4159 8.97981H26.2227L26.9633 7.16797H27.2169L27.9575 8.97981H27.9539V8.97956Z" fill="#00A39D"/>
</svg>
