<svg xmlns="http://www.w3.org/2000/svg" width="50" height="21" viewBox="0 0 19010 7820"><g id="l36rfw9CtHN8twVhJFiGpSr" fill="rgb(11,77,67)"><g><path id="pWZKmw3ne" d="M500 5685 l0 -1596 683 3 c605 4 693 6 777 22 412 78 685 281 861 641 146 299 207 611 196 1010 -11 396 -67 676 -184 910 -60 121 -115 195 -209 285 -165 158 -348 241 -654 296 -82 15 -186 18 -782 21 l-688 4 0 -1596z m1190 1155 c364 -95 547 -328 606 -770 20 -149 19 -604 -1 -750 -55 -392 -204 -660 -427 -765 -99 -46 -164 -55 -430 -55 l-228 0 0 1186 0 1186 198 -5 c160 -4 213 -9 282 -27z"></path><path id="pWkTs3JoV" d="M3945 7259 c-254 -42 -420 -196 -481 -444 -25 -100 -25 -319 0 -400 79 -262 294 -427 636 -488 154 -28 570 -77 652 -77 19 0 19 -7 16 -187 -3 -186 -3 -189 -33 -248 -39 -79 -97 -118 -196 -135 -119 -20 -245 7 -321 70 -56 46 -96 137 -110 248 l-11 92 -274 0 -273 0 0 -27 c0 -67 21 -204 40 -258 48 -140 179 -284 322 -354 225 -111 583 -138 932 -70 252 49 413 192 478 426 22 77 22 90 26 941 l3 862 -300 0 -301 0 0 -70 c0 -38 -2 -70 -5 -70 -3 0 -27 16 -54 35 -172 124 -510 194 -746 154z m547 -373 c36 -8 81 -22 98 -31 58 -30 116 -93 146 -158 l29 -62 3 -252 c3 -240 3 -253 -15 -253 -66 0 -309 33 -371 50 -94 26 -143 51 -199 103 -87 80 -123 200 -104 341 6 42 17 91 25 110 18 42 80 113 117 132 68 35 166 42 271 20z"></path><path id="p8j6P3jft" d="M8705 7264 c-11 -2 -45 -9 -75 -15 -30 -6 -93 -29 -140 -51 -204 -98 -311 -297 -312 -583 -1 -190 49 -327 163 -449 172 -185 384 -247 1038 -307 l133 -12 -5 -176 c-3 -97 -11 -195 -17 -218 -17 -59 -78 -125 -142 -153 -69 -31 -216 -34 -295 -7 -113 39 -197 155 -209 288 -3 35 -7 74 -10 87 l-4 22 -272 0 -271 0 6 -107 c7 -132 31 -207 98 -308 156 -232 391 -326 819 -328 277 -1 477 40 607 124 118 77 197 187 240 334 16 55 18 139 21 933 l3 872 -301 0 -300 0 0 -70 0 -71 -46 32 c-112 77 -277 135 -447 158 -75 11 -240 13 -282 5z m498 -374 c166 -27 269 -131 296 -300 6 -36 11 -154 11 -262 0 -182 -1 -198 -17 -198 -52 0 -301 31 -358 45 -231 53 -334 186 -323 414 6 116 32 184 90 236 73 67 168 87 301 65z"></path><path id="pL8MHG0a5" d="M15039 7260 c-90 -11 -244 -53 -335 -91 -381 -159 -554 -522 -531 -1114 13 -301 55 -478 160 -660 47 -82 183 -222 272 -280 295 -193 827 -230 1151 -81 99 46 177 102 256 183 121 124 186 252 230 454 20 95 22 131 23 399 0 269 -2 305 -23 409 -38 189 -94 320 -188 442 -119 156 -309 269 -533 320 -98 22 -373 33 -482 19z m305 -340 c115 -36 202 -143 241 -297 50 -197 65 -679 29 -943 -25 -187 -109 -330 -221 -377 -95 -39 -235 -36 -329 9 -103 48 -188 179 -218 333 -46 241 -47 760 -1 961 29 128 108 249 190 292 89 46 203 54 309 22z"></path><path id="p06mei1Rc" d="M5780 6105 l0 -1105 310 0 310 0 0 125 c0 69 2 125 5 125 3 0 38 -28 78 -63 126 -110 208 -158 337 -199 66 -20 95 -23 235 -23 181 0 242 12 361 70 94 46 173 125 219 219 69 139 68 124 72 1089 l4 867 -310 0 -311 0 0 -707 c0 -906 -7 -989 -86 -1081 -66 -78 -174 -110 -297 -91 -172 28 -274 125 -297 286 -6 40 -10 386 -10 831 l0 762 -310 0 -310 0 0 -1105z"></path><path id="ptM1kbtkT" d="M10550 6105 l0 -1105 310 0 310 0 0 125 c0 69 2 125 5 125 3 0 45 -32 93 -71 95 -77 245 -157 357 -190 102 -31 334 -38 442 -14 43 10 101 28 128 40 104 46 204 142 247 235 l22 48 81 -72 c156 -139 288 -217 425 -252 101 -25 320 -15 419 20 145 51 245 131 305 245 73 138 70 95 73 1084 l4 887 -315 0 -315 0 -3 -817 c-4 -751 -5 -822 -22 -873 -35 -108 -94 -164 -199 -191 -66 -16 -201 3 -275 39 -68 33 -133 104 -157 174 -19 50 -20 95 -23 861 l-3 807 -309 0 -309 0 -3 -832 c-3 -773 -4 -836 -21 -878 -30 -77 -65 -118 -126 -147 -49 -24 -67 -28 -142 -27 -176 2 -288 62 -345 186 l-29 63 -3 818 -3 817 -309 0 -310 0 0 -1105z"></path><path id="p19J01vWfI" d="M16650 6105 l0 -1105 310 0 310 0 0 125 c0 69 3 125 6 125 3 0 32 -23 63 -52 124 -114 234 -179 362 -215 92 -25 358 -25 449 0 171 48 284 136 350 271 70 142 70 145 70 1107 l0 849 -310 0 -310 0 0 -777 c0 -493 -4 -802 -11 -842 -29 -180 -121 -263 -293 -263 -123 -1 -205 29 -278 102 -98 98 -92 40 -96 973 l-3 807 -309 0 -310 0 0 -1105z"></path></g></g><g id="l4Hr527Ot36xO33PJzPrFJw" fill="rgb(254,163,11)"><g><path id="p1G6k1tCFb" d="M16560 3839 c-1103 -252 -2020 -461 -2037 -465 -26 -5 -33 -3 -33 10 0 9 -7 16 -15 16 -18 0 -20 -26 -2 -33 10 -4 10 -6 0 -6 -10 -1 -13 -169 -13 -806 l0 -805 2055 0 2055 0 0 1275 c0 701 -1 1275 -2 1274 -2 -1 -905 -208 -2008 -460z"></path><path id="prwsDLXDI" d="M3450 1375 c0 -274 3 -365 12 -365 21 0 3062 631 3083 640 11 4 55 20 97 35 47 16 75 31 71 38 -4 6 2 8 15 5 12 -4 25 -2 28 3 3 5 -664 9 -1650 9 l-1656 0 0 -365z"></path></g></g><g id="l6Sd7BwnO2YZa16txRreZ2v" fill="rgb(241,90,34)"><g><path id="plyAJIlhV" d="M10790 2620 c-3490 -740 -3880 -826 -3863 -853 3 -5 -3 -8 -13 -6 -11 1 -26 -1 -34 -4 -8 -3 -24 -8 -35 -10 -32 -7 1897 -7 4868 0 l2777 6 0 824 c0 778 -1 823 -17 822 -10 -1 -1667 -351 -3683 -779z"></path><path id="p1Fk3AyB18" d="M500 1095 c0 -510 3 -645 13 -645 6 1 667 135 1467 299 l1455 297 3 347 2 347 -1470 0 -1470 0 0 -645z"></path></g></g><g id="l2jOlnI9MdG10ml5bliF5R5" fill="rgb(254,197,38)"><g><path id="p6Y6IUSP2" d="M10690 3031 c-2076 -693 -3772 -1259 -3768 -1260 3 -1 1705 359 3782 799 2077 440 3778 800 3781 800 3 0 5 207 5 460 0 362 -3 460 -12 460 -7 -1 -1712 -567 -3788 -1259z"></path><path id="pwhn1JHmi" d="M5083 1381 c-893 -186 -1625 -340 -1627 -342 -5 -6 -15 -589 -9 -589 7 0 3267 1261 3272 1266 7 7 48 15 -1636 -335z"></path></g></g></svg>
