<svg xmlns="http://www.w3.org/2000/svg" width="50" height="13" viewBox="0 0 39900 10010"><g fill="rgb(0,0,0)"><g><path id="pgjwIy3Ui" d="M13070 6975 c-458 -75 -782 -349 -925 -778 -127 -384 -108 -806 54 -1161 48 -107 151 -253 238 -338 183 -181 378 -281 633 -323 150 -26 407 -17 546 19 448 112 760 448 858 923 30 143 39 365 20 491 l-5 32 -914 0 -915 0 7 48 c33 255 150 456 323 555 169 96 446 101 629 11 89 -44 183 -134 227 -218 l29 -56 293 0 c263 0 292 2 292 16 0 28 -70 195 -112 266 -50 88 -143 202 -206 255 -136 115 -319 203 -507 243 -131 28 -437 36 -565 15z m834 -1622 c-11 -65 -54 -186 -87 -243 -48 -85 -143 -174 -229 -215 -184 -87 -435 -86 -601 2 -29 15 -82 57 -118 93 -52 51 -76 86 -112 160 -40 82 -77 193 -77 229 0 8 173 11 615 11 l616 0 -7 -37z"/><path id="p162g2Gz2U" d="M21585 6979 c-471 -64 -803 -394 -913 -910 -105 -488 -8 -1014 245 -1329 147 -183 322 -293 560 -352 126 -31 381 -31 498 1 205 55 384 181 504 355 l41 59 0 -186 0 -187 300 0 300 0 0 1245 0 1245 -300 0 -300 0 -2 -187 -3 -186 -39 59 c-115 174 -324 314 -534 360 -87 19 -268 25 -357 13z m459 -514 c211 -55 366 -229 433 -484 34 -130 43 -380 19 -520 -34 -194 -101 -337 -206 -441 -129 -126 -331 -182 -530 -146 -271 49 -451 266 -500 604 -18 123 -8 394 19 497 65 251 227 434 432 489 73 20 259 20 333 1z"/><path id="p1GwPPeSop" d="M25960 6979 c-316 -40 -556 -190 -739 -462 -86 -127 -164 -340 -198 -543 -26 -160 -24 -466 6 -628 57 -318 199 -584 401 -753 97 -82 262 -165 395 -200 89 -23 119 -26 270 -26 144 0 182 3 250 22 207 56 383 180 504 355 l41 59 0 -186 0 -187 300 0 300 0 0 1245 0 1245 -300 0 -300 0 0 -186 0 -185 -60 80 c-203 269 -517 395 -870 350z m505 -529 c274 -105 415 -371 415 -780 0 -290 -70 -499 -216 -645 -110 -109 -236 -158 -409 -159 -117 0 -184 14 -281 60 -175 83 -296 271 -339 533 -14 80 -16 138 -12 265 6 194 27 289 94 426 76 158 207 271 366 315 84 24 305 15 382 -15z"/><path id="pviGCLmhM" d="M32795 6979 c-300 -40 -557 -198 -720 -443 -215 -324 -289 -816 -189 -1263 100 -448 364 -759 736 -867 180 -52 396 -58 563 -16 44 11 127 43 185 71 92 46 116 64 200 148 53 53 111 118 128 145 l32 49 0 -186 0 -187 305 0 305 0 0 1245 0 1245 -305 0 -305 0 0 -187 0 -188 -37 55 c-50 75 -175 197 -253 248 -75 49 -195 98 -290 118 -85 19 -267 25 -355 13z m516 -531 c91 -34 188 -105 244 -180 117 -156 165 -330 165 -600 0 -450 -184 -735 -512 -794 -174 -32 -348 6 -477 104 -167 126 -257 339 -268 634 -12 319 57 547 212 703 76 76 146 119 240 147 93 27 306 20 396 -14z"/><path id="pg4gZFDb1" d="M9420 5194 l0 -1725 758 3 c673 4 768 6 852 22 451 84 761 336 890 724 41 124 54 230 47 396 -7 200 -48 343 -146 510 -53 91 -174 224 -270 296 -83 63 -240 141 -351 174 -179 53 -224 58 -687 63 l-433 5 0 629 0 629 -330 0 -330 0 0 -1726z m1455 -69 c160 -33 306 -136 372 -260 54 -103 68 -165 67 -305 -1 -105 -5 -137 -26 -201 -56 -171 -159 -271 -344 -336 l-79 -28 -392 -3 -393 -3 0 575 0 576 363 0 c279 0 378 -4 432 -15z"/><path id="pP8dTNGdd" d="M14830 5675 l0 -1245 300 0 300 0 0 228 0 227 33 -58 c137 -244 389 -395 690 -414 l97 -6 0 280 0 280 -97 7 c-137 9 -225 30 -318 75 -203 98 -316 265 -371 551 -13 71 -17 188 -21 703 l-5 617 -304 0 -304 0 0 -1245z"/><path id="pzeu1w1jP" d="M16500 5675 l0 -1245 300 0 300 0 2 191 3 191 47 -74 c113 -178 284 -299 496 -349 75 -18 108 -21 242 -16 177 5 285 31 400 93 131 73 249 190 309 312 12 23 25 42 29 42 4 0 19 -20 35 -44 78 -124 226 -249 378 -320 151 -70 206 -81 409 -81 208 0 263 12 419 87 89 43 116 62 186 132 69 69 90 98 134 186 64 131 98 261 111 434 5 72 10 485 10 919 l0 787 -310 0 -309 0 -3 -827 c-4 -913 -1 -871 -68 -1010 -38 -77 -119 -153 -198 -184 -49 -20 -75 -23 -182 -23 -107 0 -133 3 -182 23 -163 64 -269 209 -324 441 -16 67 -18 154 -21 828 l-4 752 -309 0 -309 0 -3 -837 -3 -838 -27 -80 c-48 -140 -120 -222 -236 -269 -61 -24 -220 -33 -293 -16 -189 44 -317 183 -381 415 -22 79 -23 89 -26 853 l-3 772 -309 0 -310 0 0 -1245z"/><path id="pJhAquT6y" d="M23770 5920 l0 -1000 -190 0 -190 0 0 -245 0 -245 190 0 190 0 0 -335 0 -335 310 0 310 0 0 335 0 335 250 0 250 0 0 245 0 245 -250 0 -250 0 0 1000 0 1000 -310 0 -310 0 0 -1000z"/><path id="p1G4x3tBQQ" d="M29020 5195 l0 -1726 783 4 c749 4 786 5 877 25 283 62 483 181 616 368 181 253 200 620 47 884 -57 98 -189 225 -296 284 l-89 49 59 22 c144 54 244 116 347 214 121 116 191 233 238 398 19 65 23 103 23 223 0 160 -16 251 -65 376 -50 125 -94 192 -198 297 -139 142 -305 226 -552 280 -91 20 -130 21 -942 24 l-848 4 0 -1726z m1575 1211 c199 -56 324 -173 370 -347 19 -72 19 -239 0 -314 -45 -173 -164 -288 -355 -346 -72 -22 -93 -23 -512 -27 l-438 -3 0 531 0 532 438 -4 c372 -4 446 -7 497 -22z m-81 -1534 c85 -32 136 -64 185 -117 91 -98 134 -254 112 -403 -22 -149 -98 -260 -220 -322 -111 -56 -149 -60 -558 -60 l-373 0 0 466 0 465 398 -3 c381 -4 399 -5 456 -26z"/><path id="pVpFZTlj1" d="M34800 5675 l0 -1245 300 0 300 0 0 197 0 198 38 -64 c110 -188 318 -329 551 -376 115 -24 352 -16 466 14 345 91 550 354 595 763 6 60 10 416 10 928 l0 830 -310 0 -310 0 0 -799 c0 -876 -1 -893 -59 -1017 -73 -156 -210 -234 -411 -234 -218 0 -381 98 -470 283 -85 179 -90 233 -90 1075 l0 692 -305 0 -305 0 0 -1245z"/><path id="p1FPCBnnVc" d="M37510 5195 l0 -1725 310 0 310 0 2 990 3 991 444 -511 444 -510 364 0 c289 0 363 3 356 13 -4 6 -229 259 -501 560 -271 301 -492 552 -490 557 3 7 1067 1276 1121 1338 l20 22 -379 0 -379 -1 -500 -604 -500 -604 -3 604 -2 605 -310 0 -310 0 0 -1725z"/></g></g><g fill="rgb(0,100,255)"><g><path id="pO1QVtoDL" d="M2614 9212 c-626 -433 -1183 -818 -1237 -856 -755 -526 -1218 -1239 -1343 -2068 -21 -143 -29 -496 -15 -655 46 -496 235 -977 570 -1457 97 -140 3160 -4162 3167 -4159 5 2 2734 3582 3017 3957 416 552 619 996 704 1536 25 162 25 594 0 765 -115 769 -503 1421 -1157 1942 -75 59 -2322 1621 -2546 1769 -19 13 -102 -43 -1160 -774z m653 -914 c-4 -514 -6 -536 -57 -671 -45 -121 -131 -224 -881 -1057 -905 -1007 -941 -1047 -1044 -1185 -120 -160 -204 -306 -272 -475 -10 -24 -12 -21 -50 55 -259 514 -304 1092 -126 1610 75 218 226 486 384 682 90 111 288 305 404 395 102 79 1623 1126 1638 1127 5 1 7 -216 4 -481z m1764 -54 c431 -295 827 -570 879 -612 329 -266 587 -611 734 -982 86 -218 125 -409 133 -655 9 -259 -20 -462 -102 -710 -46 -140 -152 -385 -166 -385 -5 0 -17 19 -26 43 -29 75 -118 240 -173 322 -121 181 -141 205 -1090 1260 -425 473 -793 887 -817 920 -57 78 -117 202 -139 290 -15 60 -18 137 -21 558 -3 268 -2 487 0 487 3 0 357 -241 788 -536z m-449 -2081 c931 -1038 936 -1043 1028 -1167 197 -266 270 -498 241 -763 -21 -189 -92 -359 -243 -585 -46 -68 -481 -640 -967 -1272 -853 -1108 -884 -1147 -901 -1130 -31 32 -1783 2315 -1842 2399 -119 172 -189 318 -224 470 -27 117 -25 351 4 458 44 161 152 348 310 537 43 52 362 410 707 795 945 1052 1055 1175 1060 1175 2 0 374 -413 827 -917z"/></g></g></svg>
