<?xml version="1.0" encoding="UTF-8"?>
<svg version="1.1" xmlns="http://www.w3.org/2000/svg" width="1777" height="594">
<path d="M0 0 C2.98940656 2.683999 5.90560195 5.43782973 8.8125 8.2109375 C9.66457031 9.01015625 10.51664062 9.809375 11.39453125 10.6328125 C46.6240166 44.58626925 64.64001863 92.99244849 66.8125 141.2109375 C66.85503906 142.13648438 66.89757812 143.06203125 66.94140625 144.015625 C67.83070431 184.92333569 55.22324998 227.27926665 30.8125 260.2109375 C30.42416992 260.75041016 30.03583984 261.28988281 29.63574219 261.84570312 C13.10578364 284.79252837 -7.97266335 303.22786297 -32.46679688 317.22070312 C-34.09936937 318.16021987 -35.71436175 319.13009308 -37.328125 320.1015625 C-38.27171875 320.65328125 -39.2153125 321.205 -40.1875 321.7734375 C-40.991875 322.24910156 -41.79625 322.72476562 -42.625 323.21484375 C-49.13771535 325.74646328 -55.77417239 323.61152966 -62.25 321.8984375 C-63.24241699 321.63627441 -64.23483398 321.37411133 -65.25732422 321.10400391 C-84.00589782 315.94778589 -102.08763192 308.58706362 -120 301.0859375 C-154.46399465 286.65479049 -191.00192514 273.98476128 -228.82421875 274.078125 C-229.70672806 274.07716827 -230.58923737 274.07621155 -231.49848938 274.07522583 C-233.35307894 274.07455039 -235.20767095 274.0763599 -237.06225586 274.08056641 C-239.85080488 274.0858913 -242.63919048 274.08061619 -245.42773438 274.07421875 C-247.24739629 274.07440083 -249.06705845 274.07569025 -250.88671875 274.078125 C-251.77199249 274.07827606 -252.65726624 274.07842712 -253.56936646 274.07858276 C-257.63087096 274.10129912 -261.6346648 274.20710463 -265.67724609 274.61376953 C-266.36099808 274.68040802 -267.04475006 274.74704651 -267.7492218 274.81570435 C-269.55010401 275.00832402 -271.34681674 275.23889731 -273.14282227 275.47265625 C-277.32118985 275.11348617 -278.70137087 273.41080128 -281.4375 270.3359375 C-282.79589844 268.5847168 -282.79589844 268.5847168 -283.796875 266.97265625 C-284.18423828 266.36341309 -284.57160156 265.75416992 -284.97070312 265.12646484 C-285.37224609 264.49434082 -285.77378906 263.8622168 -286.1875 263.2109375 C-287.08446655 261.90214573 -287.98563177 260.59622319 -288.890625 259.29296875 C-304.28232721 236.74164596 -314.20905838 212.78336326 -320.1875 186.2109375 C-320.36829102 185.43186035 -320.54908203 184.6527832 -320.73535156 183.85009766 C-326.39659783 158.34072457 -325.05828957 128.48907281 -319.1875 103.2109375 C-318.97851074 102.30682129 -318.76952148 101.40270508 -318.55419922 100.47119141 C-306.33132065 49.66613284 -273.03761582 6.46427571 -228.8840332 -20.79956055 C-157.19681008 -63.69361261 -62.60120673 -55.2796547 0 0 Z M-172.5 61.3984375 C-181.00494515 71.71591194 -186.06921782 85.33089972 -185.46875 98.81640625 C-183.28255843 117.42939835 -176.06050663 129.78878086 -161.6328125 141.23828125 C-150.43176952 148.93245564 -136.88767855 153.27537278 -124.1875 157.8359375 C-113.51846681 161.70329985 -103.79580285 165.46472984 -97.1875 175.2109375 C-95.28554679 180.91679714 -95.28497788 186.98240488 -97.75 192.5234375 C-101.16098404 198.39791002 -105.89379317 201.00440709 -112.25 203.0234375 C-130.62935672 207.38039672 -148.46059669 201.6883221 -164.1875 192.2109375 C-167.27927969 190.16773494 -170.23379636 187.96913371 -173.1484375 185.6796875 C-175.03914432 184.01611466 -175.03914432 184.01611466 -177.1875 184.2109375 C-178.50671244 185.69181272 -178.50671244 185.69181272 -179.796875 187.6484375 C-180.30476562 188.37933594 -180.81265625 189.11023438 -181.3359375 189.86328125 C-182.12871094 191.02537109 -182.12871094 191.02537109 -182.9375 192.2109375 C-183.9727415 193.71177757 -185.00919766 195.21178053 -186.046875 196.7109375 C-186.55927734 197.45214844 -187.07167969 198.19335938 -187.59960938 198.95703125 C-190.04971064 202.43478877 -192.60875985 205.8279254 -195.1875 209.2109375 C-189.88111471 220.87977378 -171.11239988 229.66789228 -159.5546875 234.03515625 C-155.14721327 235.60138042 -150.69482017 236.96367856 -146.1875 238.2109375 C-145.22585938 238.47777344 -144.26421875 238.74460937 -143.2734375 239.01953125 C-124.52560886 243.2276352 -101.54210588 240.4491684 -85.1796875 230.35546875 C-73.01366851 221.78621559 -63.59574807 211.3341225 -60.50097656 196.31933594 C-58.78705099 184.79171811 -58.48423118 171.63172497 -64.1875 161.2109375 C-64.64640625 160.3446875 -65.1053125 159.4784375 -65.578125 158.5859375 C-78.50173845 135.73154739 -102.61583387 126.5824706 -126.14819336 117.92407227 C-143.16341629 111.58842429 -143.16341629 111.58842429 -147.1875 104.2109375 C-149.2181541 97.94797276 -149.56703025 93.34762078 -147.1875 87.2109375 C-146.8575 86.2209375 -146.5275 85.2309375 -146.1875 84.2109375 C-144.5625 83.2109375 -144.5625 83.2109375 -142.1875 82.2109375 C-141.053125 81.6953125 -139.91875 81.1796875 -138.75 80.6484375 C-126.12737791 75.55509876 -111.40898882 78.33250437 -99 82.9609375 C-93.11165119 85.50295655 -87.649587 88.8698671 -82.1875 92.2109375 C-79.93239518 89.02702152 -77.68435982 85.83817599 -75.4375 82.6484375 C-74.80328125 81.75318359 -74.1690625 80.85792969 -73.515625 79.93554688 C-70.14421895 75.1418289 -66.98545577 70.36171971 -64.1875 65.2109375 C-94.77722378 41.42613109 -142.16591737 29.56779672 -172.5 61.3984375 Z " fill="#EA5F00" transform="translate(438.1875,128.7890625)"/>
<path d="M0 0 C0.85596771 -0.00705963 1.71193542 -0.01411926 2.59384155 -0.02139282 C38.73934482 -0.25179099 38.73934482 -0.25179099 55.64453125 3.203125 C56.62518555 3.40180176 57.60583984 3.60047852 58.61621094 3.80517578 C97.82338157 12.01175665 134.48629732 27.78350225 165.64453125 53.203125 C166.62808594 53.98300781 167.61164063 54.76289062 168.625 55.56640625 C183.27677824 67.50695556 197.29828505 81.08171062 208.37158203 96.44287109 C209.74020189 98.33541984 211.14296558 100.19991306 212.546875 102.06640625 C237.67484322 135.99545854 252.291743 176.52916802 257.64453125 218.203125 C257.74024414 218.90759766 257.83595703 219.61207031 257.93457031 220.33789062 C265.52498303 283.94500507 245.9463525 346.89447402 207.16357422 397.17919922 C205.86330071 398.91164335 204.65213781 400.71035583 203.4609375 402.51953125 C196.93705231 411.957506 187.01666952 415.28009138 176.64453125 419.203125 C175.59410645 419.60917969 175.59410645 419.60917969 174.52246094 420.0234375 C157.83023271 426.38238159 142.29155742 427.70504596 124.64453125 427.203125 C128.17614858 423.46725368 131.88199894 420.51914843 136.14453125 417.640625 C143.06383692 412.84587741 149.0988805 407.37521649 155.16894531 401.56567383 C156.67555067 400.17448182 158.22933317 398.86858146 159.81640625 397.5703125 C163.55545875 394.44066358 166.51114991 390.92206866 169.64453125 387.203125 C170.38574219 386.36136719 171.12695312 385.51960938 171.890625 384.65234375 C210.05251849 340.50666537 224.86983943 284.23093234 221.44238281 226.81689453 C216.87325306 174.66846836 190.41323302 123.44644809 151.10546875 88.9765625 C148.32802702 86.65793121 145.50542434 84.41800998 142.64453125 82.203125 C141.81526123 81.55923828 141.81526123 81.55923828 140.96923828 80.90234375 C95.96041108 46.2051751 39.62993792 30.85133931 -16.73242188 37.83935547 C-24.3575626 38.89682565 -31.86195472 40.45510124 -39.35546875 42.203125 C-40.09297363 42.37150879 -40.83047852 42.53989258 -41.59033203 42.71337891 C-94.57143552 55.11726015 -140.42831677 90.99531933 -169.10546875 136.578125 C-174.95277631 146.11700669 -180.00069752 155.89936704 -184.35546875 166.203125 C-184.67209473 166.95207031 -184.9887207 167.70101562 -185.31494141 168.47265625 C-206.12093538 218.79817275 -204.95732464 275.51441938 -185.48046875 325.953125 C-178.09265625 343.67621924 -168.94362787 360.92355461 -156.97265625 375.98046875 C-155.35546875 378.203125 -155.35546875 378.203125 -155.35546875 380.203125 C-156.03013184 380.45481445 -156.70479492 380.70650391 -157.39990234 380.96582031 C-160.51054091 382.12705442 -163.62050702 383.29007952 -166.73046875 384.453125 C-168.32181641 385.04673828 -168.32181641 385.04673828 -169.9453125 385.65234375 C-176.45004647 388.08663069 -182.92036755 390.59016036 -189.35546875 393.203125 C-229.13789201 335.53818315 -244.67050818 268.70789899 -232.359375 199.4296875 C-219.98333701 134.91452754 -181.39963512 79.039095 -127.79980469 41.85839844 C-90.54018361 16.62665344 -45.31168442 0.25112181 0 0 Z " fill="#EA5F00" transform="translate(298.35546875,29.796875)"/>
<path d="M0 0 C101.51995083 0 101.51995083 0 119.625 17.39453125 C131.25106962 30.14878854 133.68775475 45.21924706 133.13183594 61.81445312 C132.51636439 72.01760374 128.42898758 83.88376252 121.125 91.25 C120.073125 92.11625 120.073125 92.11625 119 93 C119.56847656 93.4125 120.13695312 93.825 120.72265625 94.25 C132.3912206 102.97707317 140.23151034 113.37790986 143 128 C145.45456699 146.50431615 143.02765923 163.556343 132 179 C121.02030127 192.31534041 106.70546599 197.61350486 90 200 C60.3 200 30.6 200 0 200 C0 134 0 68 0 0 Z M34 35 C34 49.52 34 64.04 34 79 C40.826875 79.0825 47.65375 79.165 54.6875 79.25 C57.87732544 79.30462402 57.87732544 79.30462402 61.1315918 79.36035156 C72.86256394 79.47782476 84.44336471 79.57138932 94.1875 72.0625 C98.73151914 67.56336006 99.87147096 62.30960743 100 56 C99.45463349 49.64950994 96.83529012 45.1131364 92 41 C80.45126615 33.24446952 63.38986573 34.72689631 50.0625 34.875 C42.1115625 34.936875 42.1115625 34.936875 34 35 Z M34 113 C34 129.83 34 146.66 34 164 C40.826875 164.04125 47.65375 164.0825 54.6875 164.125 C56.81405029 164.14320801 58.94060059 164.16141602 61.1315918 164.18017578 C75.74962575 164.25392048 88.85524639 163.99462713 101.75 156.375 C106.80073893 151.04366446 109.30207967 145.22257367 109.5625 137.875 C109.21391516 130.71983742 107.10687286 125.76946917 102 120.75 C92.83837316 113.48797613 80.53202068 112.84291803 69.3515625 112.90234375 C68.45332764 112.90335083 67.55509277 112.90435791 66.62963867 112.90539551 C63.29474601 112.91060232 59.95987164 112.92456349 56.625 112.9375 C45.425625 112.9684375 45.425625 112.9684375 34 113 Z " fill="#E95F00" transform="translate(1122,174)"/>
<path d="M0 0 C1.46638916 0.46623779 1.46638916 0.46623779 2.96240234 0.94189453 C17.98642225 5.81654483 32.38532596 11.82768218 46.82904053 18.18029785 C95.99490737 39.80433486 147.67747215 55.6770955 201 39 C201.76248047 38.7618457 202.52496094 38.52369141 203.31054688 38.27832031 C221.49465383 32.43066995 238.61480806 23.41650003 254.35546875 12.64453125 C258.87564762 9.83360761 262.70267712 9.64085947 268 10 C273.83153409 12.01087382 278.16636336 14.47084601 281.8125 19.5 C283.87098438 25.56711187 284.47959248 32.89802809 281.5625 38.8125 C263.3562015 64.6357193 215.37418276 76.66505153 186.265625 82.78515625 C132.14529738 91.87252469 80.90463733 75.52447515 31.89550781 54.35351562 C5.50612708 42.95672585 -21.08836045 31.83231074 -50 29 C-51.03382813 28.89042969 -52.06765625 28.78085937 -53.1328125 28.66796875 C-97.95711867 24.53796511 -137.67831758 39.50954051 -173.13891602 66.63623047 C-173.84588623 67.17393066 -174.55285645 67.71163086 -175.28125 68.265625 C-175.91998047 68.75579102 -176.55871094 69.24595703 -177.21679688 69.75097656 C-181.84666337 72.99391153 -186.47848389 73.47599277 -192 73 C-198.47506242 71.61697696 -202.38026395 68.51101682 -206 63 C-207.04789914 59.85630257 -207.20016213 57.48925899 -207.25 54.1875 C-207.27578125 53.17042969 -207.3015625 52.15335937 -207.328125 51.10546875 C-206.58163758 44.04049856 -202.57552111 40.11830761 -197.4453125 35.68359375 C-140.65768328 -9.76387587 -69.08198955 -22.11426533 0 0 Z " fill="#2572DD" transform="translate(269,429)"/>
<path d="M0 0 C0.33 -2.31 0.66 -4.62 1 -7 C13.21 -7 25.42 -7 38 -7 C38 42.83 38 92.66 38 144 C25.79 144 13.58 144 1 144 C0.67 139.71 0.34 135.42 0 131 C-1.423125 132.0725 -2.84625 133.145 -4.3125 134.25 C-18.42411831 144.08838178 -36.0688354 145.70990606 -52.78125 143.5 C-65.64889028 140.9947957 -75.77876666 136.14123673 -86 128 C-86.63550781 127.52949219 -87.27101563 127.05898438 -87.92578125 126.57421875 C-101.76142569 115.79195791 -109.99249998 97.45979853 -112.70703125 80.45019531 C-115.62522474 56.04437041 -110.84522601 31.5839178 -95.59765625 11.8984375 C-73.24449136 -14.72744827 -27.94525632 -23.17411499 0 0 Z M-63.1875 33.4375 C-71.82450729 42.7402401 -75.93289797 54.6951856 -76.0234375 67.25 C-75.53258647 78.20372819 -72.35836827 88.66660984 -65 97 C-55.38827567 105.64298361 -46.35201928 108.6779435 -33.52734375 108.34375 C-23.9643715 107.41181029 -15.71048257 103.95520266 -9 97 C0.8795714 84.4435077 2.43911164 71.54107632 1 56 C0.18386885 51.96084244 -1.03984839 48.61498366 -3 45 C-3.42410156 44.21625 -3.84820313 43.4325 -4.28515625 42.625 C-10.19264071 32.88341002 -17.96015551 26.80809998 -29 24 C-41.32600491 21.18917118 -53.86196703 25.06245404 -63.1875 33.4375 Z " fill="#EA5F00" transform="translate(1388,230)"/>
<path d="M0 0 C0.495 0.495 0.495 0.495 1 1 C1.33 -1.97 1.66 -4.94 2 -8 C13.88 -8 25.76 -8 38 -8 C38 42.16 38 92.32 38 144 C26.12 144 14.24 144 2 144 C1.67 139.38 1.34 134.76 1 130 C-0.85625 131.5778125 -0.85625 131.5778125 -2.75 133.1875 C-16.12846894 143.53016613 -32.62022841 145.19655555 -49 144 C-68.77815971 141.38200161 -84.02602058 131.9851434 -97 117 C-111.47974292 97.56006833 -115.59938602 74.06471048 -112.22827148 50.37036133 C-108.97488002 30.84326746 -99.40467794 12.18927576 -83.25 0.25 C-58.26554893 -16.17388722 -24.55981955 -18.83714315 0 0 Z M-63.890625 34.734375 C-73.83876435 45.41941356 -75.67590031 57.4548681 -75.28515625 71.48828125 C-74.79254416 81.49098617 -71.20977653 89.36924582 -64.5 96.75 C-63.675 97.4925 -62.85 98.235 -62 99 C-61.2575 99.680625 -60.515 100.36125 -59.75 101.0625 C-49.85245654 108.03576925 -39.07610488 109.38556783 -27.2109375 107.57421875 C-17.27486209 105.00345638 -9.2248189 98.77375249 -4 90 C2.49976317 78.50704128 3.23215375 65.49532759 0.24609375 52.79296875 C-3.10894477 41.63290339 -10.11891227 32.36162272 -20.44921875 26.64453125 C-36.10641595 19.83598553 -51.62099855 23.31092969 -63.890625 34.734375 Z " fill="#EA5F00" transform="translate(1059,230)"/>
<path d="M0 0 C19.38035735 -0.69734419 38.22348473 5.78565137 52.79296875 18.59375 C54.3919676 20.09810406 55.97698985 21.61755297 57.54296875 23.15625 C58.37441406 23.96835938 58.37441406 23.96835938 59.22265625 24.796875 C77.14629801 43.98001591 78.54296875 69.24070252 78.54296875 94.15625 C41.25296875 94.15625 3.96296875 94.15625 -34.45703125 94.15625 C-29.50387574 106.53913878 -24.60847263 113.59658804 -12.33984375 119.0390625 C3.59182845 125.21312517 22.95780666 123.31749761 38.47265625 116.5078125 C44.56602723 113.64378581 50.24798542 110.31659404 55.54296875 106.15625 C58.70336704 107.5042154 60.29891032 108.79016236 62.19921875 111.640625 C62.66457031 112.32898438 63.12992188 113.01734375 63.609375 113.7265625 C64.08246094 114.44585937 64.55554688 115.16515625 65.04296875 115.90625 C65.51605469 116.61007812 65.98914063 117.31390625 66.4765625 118.0390625 C67.84092005 120.07237099 69.19317045 122.11325709 70.54296875 124.15625 C71.32364854 125.32850494 72.10483353 126.50042373 72.88671875 127.671875 C73.43328125 128.49171875 73.97984375 129.3115625 74.54296875 130.15625 C71.11271746 139.33113899 56.06279939 145.45430172 47.58984375 149.43359375 C25.61829388 159.16069169 -2.24166878 160.45739159 -25.06640625 152.97265625 C-44.65966386 145.28774521 -59.00051388 131.22568701 -68.10546875 112.3828125 C-77.42574299 90.13267804 -77.04824337 64.55127037 -67.9765625 42.296875 C-65.34844879 36.8649896 -62.02458225 32.00841299 -58.45703125 27.15625 C-58.03679688 26.56199219 -57.6165625 25.96773437 -57.18359375 25.35546875 C-46.20794856 10.91587881 -27.00116761 3.5529598 -9.68359375 0.69921875 C-6.45852458 0.31770426 -3.23878883 0.20596431 0 0 Z M-23.45703125 42.15625 C-24.34390625 42.73375 -25.23078125 43.31125 -26.14453125 43.90625 C-32.14235018 49.74196571 -34.40753809 54.95827735 -36.45703125 63.15625 C-11.04703125 63.15625 14.36296875 63.15625 40.54296875 63.15625 C37.0878112 51.63905815 32.95715332 45.60996913 22.8125 39.37109375 C7.94799707 31.41436327 -9.5606206 32.88222437 -23.45703125 42.15625 Z " fill="#EA5F00" transform="translate(854.45703125,216.84375)"/>
<path d="M0 0 C1.21608612 0.99055742 2.42789878 1.98658098 3.625 3 C3.0068003 6.29721884 1.84191322 8.39238773 -0.140625 11.08203125 C-0.70136719 11.84966797 -1.26210938 12.61730469 -1.83984375 13.40820312 C-2.42894531 14.20162109 -3.01804687 14.99503906 -3.625 15.8125 C-4.77615192 17.38142953 -5.92719508 18.95043886 -7.078125 20.51953125 C-7.63306641 21.27186035 -8.18800781 22.02418945 -8.75976562 22.79931641 C-10.99519448 25.84498686 -13.18728246 28.91992398 -15.375 32 C-19.20754916 30.59496383 -22.4775287 28.78100933 -25.9375 26.625 C-38.79626522 19.0143868 -54.68856843 15.31212074 -69.5 18.71875 C-75.55942193 20.95496524 -78.50065495 23.69758253 -81.6875 29.3125 C-82.83006958 33.77890837 -82.40791208 37.70249463 -80.5390625 41.859375 C-74.84187537 50.99103664 -63.34152422 54.40407115 -53.75 57.875 C-30.95423074 66.41197787 -8.42148808 76.53665485 3.625 99 C4.87193193 101.95518301 5.86126013 104.88629131 6.625 108 C6.80804687 108.7115625 6.99109375 109.423125 7.1796875 110.15625 C9.91966047 127.65362123 6.88067905 144.07688124 -3.4375 158.5625 C-14.44636141 172.02571795 -31.26582999 178.83677226 -48.21972656 180.80371094 C-74.33637699 183.182255 -100.91113163 176.45829293 -121.4921875 159.75390625 C-124.86362596 156.91790709 -128.13853409 153.98867399 -131.375 151 C-130.75723289 147.72294927 -129.61136472 145.63037075 -127.64453125 142.953125 C-127.08830078 142.19 -126.53207031 141.426875 -125.95898438 140.640625 C-125.08209961 139.45726562 -125.08209961 139.45726562 -124.1875 138.25 C-123.62224609 137.4765625 -123.05699219 136.703125 -122.47460938 135.90625 C-118.81407443 130.90813126 -115.10185736 125.94879171 -111.375 121 C-108.31418084 123.037473 -105.25838631 125.07937813 -102.21875 127.1484375 C-86.04666049 138.00294921 -70.02907399 143.97651663 -50.375 142 C-46.72337149 141.0981988 -43.65421597 139.81731601 -40.375 138 C-39.42625 137.5875 -38.4775 137.175 -37.5 136.75 C-33.55977585 133.50510952 -31.75269096 129.47597409 -30.98828125 124.46484375 C-30.69982294 117.8700899 -32.25179177 114.49009113 -36.671875 109.55078125 C-44.73850037 101.62968778 -56.843029 98.09068071 -67.3125 94.5625 C-85.9877091 88.25492008 -105.21956638 78.84210121 -115.41796875 61.00390625 C-121.68622624 47.8789426 -122.45433405 31.59747402 -118.33984375 17.69921875 C-112.91437644 2.52108954 -102.44067783 -7.71742245 -88.0625 -14.75 C-58.36504772 -27.21305823 -24.82820603 -19.25452713 0 0 Z " fill="#EA5F00" transform="translate(757.375,193)"/>
<path d="M0 0 C11.88 0 23.76 0 36 0 C36.33 33.33 36.66 66.66 37 101 C40.63 97.04 44.26 93.08 48 89 C49.9984334 86.83188829 51.99806714 84.66488089 54 82.5 C58.74458631 77.36570191 63.47216823 72.2161935 68.19140625 67.05859375 C70.19117767 64.87657189 72.20046535 62.70369933 74.21484375 60.53515625 C74.75238281 59.95572266 75.28992187 59.37628906 75.84375 58.77929688 C76.87485886 57.66858034 77.90732223 56.55911904 78.94140625 55.45117188 C81.07154147 53.15516547 82.94782113 51.09324709 84.48364258 48.34863281 C88.47924661 44.61935069 92.62604599 45.37972568 97.890625 45.51171875 C98.95037537 45.51879349 100.01012573 45.52586823 101.10198975 45.53315735 C104.48537916 45.56113664 107.86711116 45.62388479 111.25 45.6875 C113.54424693 45.71257816 115.8385198 45.73539216 118.1328125 45.75585938 C123.75577342 45.81097475 129.37776831 45.89463691 135 46 C133.57567584 48.97816718 132.22096735 50.97931682 129.8125 53.25 C127.40558542 55.58814559 125.12027956 57.95157717 122.9375 60.5 C119.40165985 64.6051024 115.70669323 68.5499991 112 72.5 C107.86367042 76.91072454 103.77364589 81.33869417 99.828125 85.921875 C97.30930806 88.78514554 94.71673843 91.57778463 92.125 94.375 C82.27462945 104.93754036 82.27462945 104.93754036 73 116 C76.58878236 121.89936826 80.74504351 127.24274083 85.125 132.5625 C90.12488384 138.63557498 94.92652333 144.81669804 99.61523438 151.13232422 C102.88887391 155.53573697 106.22324354 159.88233019 109.625 164.1875 C114.33973904 170.15654228 119.01485708 176.15212284 123.62744141 182.20068359 C124.61783202 183.49900782 125.60990308 184.79605077 126.60302734 186.09228516 C128.28224256 188.28676375 129.95437991 190.48647345 131.625 192.6875 C132.15859131 193.38343262 132.69218262 194.07936523 133.24194336 194.79638672 C137 199.77128492 137 199.77128492 137 202 C130.86208831 202.19837865 124.72605765 202.34321671 118.58569336 202.43945312 C116.49909955 202.47958304 114.4127293 202.53410272 112.3269043 202.60351562 C109.32023959 202.70103683 106.31655614 202.74602902 103.30859375 202.78125 C102.38227646 202.82254028 101.45595917 202.86383057 100.50157166 202.90637207 C96.5750596 202.90906702 94.02835063 202.83525868 90.91217041 200.30419922 C89.11918654 198.27814916 87.54620313 196.21828446 86 194 C84.98080951 192.68419936 83.95797063 191.37120713 82.9296875 190.0625 C81.90929086 188.70996583 80.89112748 187.35574442 79.875 186 C75.50292552 180.21950612 71.04049839 174.53572254 66.4375 168.9375 C60.03676607 161.14547174 53.98715707 153.11232814 48 145 C47.113125 145.70125 46.22625 146.4025 45.3125 147.125 C44.81363281 147.51945313 44.31476563 147.91390625 43.80078125 148.3203125 C38.09183221 153.59567234 38.09183221 153.59567234 36.34057617 160.90380859 C36.29972145 162.81831479 36.28524671 164.73351101 36.29296875 166.6484375 C36.27784744 167.66096588 36.26272614 168.67349426 36.24714661 169.71670532 C36.20431373 172.93636421 36.19543556 176.15508473 36.1875 179.375 C36.16435237 181.56382695 36.13898649 183.75263165 36.11132812 185.94140625 C36.04436022 191.29478005 36.02335407 196.64554935 36 202 C24.12 202 12.24 202 0 202 C0 135.34 0 68.68 0 0 Z " fill="#EA5F00" transform="translate(1610,172)"/>
<path d="M0 0 C52.60699045 22.57862738 111.96844656 42.26568414 169.04174805 24.1887207 C175.0775532 22.32645138 181.43817824 21.10629925 187.3125 24.1875 C191.78663236 26.65355721 194.82505818 29.96261637 197.125 34.5625 C197.81411981 42.00725339 197.75896217 47.5508734 193.125 53.5625 C174.22424747 70.77509425 134.28135243 69.53735903 110.42285156 68.43798828 C84.97949011 67.1040231 60.31773011 62.5249091 36.125 54.5625 C35.09632813 54.22686035 34.06765625 53.8912207 33.0078125 53.54541016 C17.63988087 48.46112349 2.7957698 42.39322046 -12.0625 36 C-66.34769851 12.04150661 -66.34769851 12.04150661 -123.875 16.5625 C-131.72255627 19.8952567 -139.00160728 23.99134501 -146.1875 28.5625 C-151.82690768 31.92312662 -156.41472585 32.68648266 -162.875 31.5625 C-168.32370404 29.81480248 -171.66041808 26.16971838 -174.875 21.5625 C-176.70250935 16.07997196 -176.78611234 9.94327576 -174.6875 4.5 C-165.45033279 -11.49607005 -137.5911059 -18.9884027 -121.05859375 -23.47265625 C-79.29070553 -32.83667707 -37.69500557 -16.18808233 0 0 Z " fill="#2572DD" transform="translate(292.875,498.4375)"/>
<path d="M0 0 C15.86296588 -0.56401656 30.30497466 3.44854106 42.44921875 13.84375 C59.07360977 29.84532521 61.19934317 50.64569889 61.69066238 72.56258011 C61.77073896 78.58462485 61.75206666 84.60650694 61.734375 90.62890625 C61.73250408 92.53275006 61.73108337 94.43659437 61.73008728 96.34043884 C61.7263151 101.29026681 61.71653176 106.24006425 61.7053833 111.18988037 C61.69505357 116.26525459 61.69056519 121.34063387 61.68554688 126.41601562 C61.67490333 136.32944248 61.65735119 146.2428389 61.63671875 156.15625 C49.75671875 156.15625 37.87671875 156.15625 25.63671875 156.15625 C25.58773438 150.36191406 25.53875 144.56757813 25.48828125 138.59765625 C25.45283092 134.8925623 25.41683462 131.18748928 25.37890625 127.48242188 C25.31896157 121.62169649 25.26086881 115.76099987 25.21484375 109.90014648 C25.17754476 105.16675103 25.13107454 100.43352097 25.07865524 95.7002697 C25.06034499 93.9085173 25.0451543 92.11672979 25.03337479 90.32492256 C24.97285042 81.42377991 24.74028678 72.61857015 23.72021484 63.76928711 C23.6412327 63.08176896 23.56225056 62.39425081 23.48087502 61.68589878 C22.36735845 52.9746767 19.52562453 44.92513324 12.63671875 39.15625 C5.22297737 34.48886579 -2.92717463 33.41776594 -11.48828125 34.78125 C-18.20131129 36.36202631 -24.02684414 39.74594202 -28.26953125 45.29296875 C-33.56111477 54.30755924 -34.49737861 64.08563299 -34.56860352 74.30444336 C-34.57850311 75.19304047 -34.58840271 76.08163757 -34.59860229 76.99716187 C-34.63000996 79.91344605 -34.65489214 82.82974649 -34.6796875 85.74609375 C-34.70027496 87.77633572 -34.72127189 89.80657357 -34.74266052 91.83680725 C-34.79769614 97.16485246 -34.84718663 102.49293515 -34.89550781 107.82104492 C-34.94585846 113.26419386 -35.00147355 118.70728875 -35.05664062 124.15039062 C-35.16399563 134.81896584 -35.26500353 145.4875873 -35.36328125 156.15625 C-47.57328125 156.15625 -59.78328125 156.15625 -72.36328125 156.15625 C-72.36328125 106.32625 -72.36328125 56.49625 -72.36328125 5.15625 C-60.15328125 5.15625 -47.94328125 5.15625 -35.36328125 5.15625 C-34.86828125 8.12625 -34.86828125 8.12625 -34.36328125 11.15625 C-33.80382813 10.76953125 -33.244375 10.3828125 -32.66796875 9.984375 C-22.6879212 3.50215762 -11.76881664 0.77810358 0 0 Z " fill="#EA5F00" transform="translate(1523.36328125,217.84375)"/>
</svg>
